<svg width="152" height="38" viewBox="0 0 152 38" fill="none" xmlns="http://www.w3.org/2000/svg">
<path d="M42.16 30V8.91H46.24V30H42.16ZM59.8982 30V21.69C59.8982 20.83 59.6282 20.13 59.0882 19.59C58.5482 19.05 57.8482 18.78 56.9882 18.78C56.4282 18.78 55.9282 18.9 55.4882 19.14C55.0482 19.38 54.6982 19.72 54.4382 20.16C54.1982 20.6 54.0782 21.11 54.0782 21.69L52.5482 20.91C52.5482 19.77 52.7882 18.78 53.2682 17.94C53.7682 17.08 54.4482 16.41 55.3082 15.93C56.1882 15.45 57.1782 15.21 58.2782 15.21C59.3382 15.21 60.2882 15.48 61.1282 16.02C61.9682 16.54 62.6282 17.23 63.1082 18.09C63.5882 18.93 63.8282 19.84 63.8282 20.82V30H59.8982ZM50.1482 30V15.51H54.0782V30H50.1482ZM76.2339 30L70.6239 22.53L76.2039 15.51H80.7339L74.1939 23.43L74.3439 21.51L81.0339 30H76.2339ZM66.9939 30V8.31H70.9239V30H66.9939ZM89.3835 30.3C87.6835 30.3 86.2235 30.01 85.0035 29.43C83.8035 28.85 82.7135 27.98 81.7335 26.82L84.4335 24.12C85.0535 24.94 85.7735 25.58 86.5935 26.04C87.4135 26.48 88.4135 26.7 89.5935 26.7C90.6535 26.7 91.4935 26.49 92.1135 26.07C92.7535 25.65 93.0735 25.07 93.0735 24.33C93.0735 23.69 92.8935 23.17 92.5335 22.77C92.1735 22.37 91.6935 22.03 91.0935 21.75C90.5135 21.47 89.8635 21.22 89.1435 21C88.4435 20.76 87.7335 20.49 87.0135 20.19C86.3135 19.89 85.6635 19.52 85.0635 19.08C84.4835 18.62 84.0135 18.04 83.6535 17.34C83.2935 16.62 83.1135 15.72 83.1135 14.64C83.1135 13.36 83.4235 12.27 84.0435 11.37C84.6635 10.47 85.5135 9.78 86.5935 9.3C87.6735 8.82 88.8935 8.58 90.2535 8.58C91.6935 8.58 92.9935 8.85 94.1535 9.39C95.3135 9.93 96.2635 10.63 97.0035 11.49L94.3035 14.19C93.6835 13.51 93.0435 13.01 92.3835 12.69C91.7435 12.37 91.0135 12.21 90.1935 12.21C89.2535 12.21 88.5135 12.39 87.9735 12.75C87.4335 13.11 87.1635 13.63 87.1635 14.31C87.1635 14.89 87.3435 15.36 87.7035 15.72C88.0635 16.08 88.5335 16.39 89.1135 16.65C89.7135 16.91 90.3635 17.16 91.0635 17.4C91.7835 17.64 92.4935 17.91 93.1935 18.21C93.9135 18.51 94.5635 18.9 95.1435 19.38C95.7435 19.86 96.2235 20.48 96.5835 21.24C96.9435 21.98 97.1235 22.9 97.1235 24C97.1235 25.96 96.4335 27.5 95.0535 28.62C93.6735 29.74 91.7835 30.3 89.3835 30.3ZM107.964 30.3C106.924 30.3 105.984 30.09 105.144 29.67C104.304 29.23 103.634 28.64 103.134 27.9C102.634 27.16 102.364 26.31 102.324 25.35V20.22C102.364 19.26 102.634 18.41 103.134 17.67C103.654 16.91 104.324 16.31 105.144 15.87C105.984 15.43 106.924 15.21 107.964 15.21C109.304 15.21 110.504 15.54 111.564 16.2C112.624 16.86 113.454 17.76 114.054 18.9C114.674 20.04 114.984 21.33 114.984 22.77C114.984 24.19 114.674 25.47 114.054 26.61C113.454 27.75 112.624 28.65 111.564 29.31C110.504 29.97 109.304 30.3 107.964 30.3ZM99.9236 36.06V15.51H103.854V19.32L103.194 22.83L103.824 26.34V36.06H99.9236ZM107.274 26.67C107.994 26.67 108.634 26.51 109.194 26.19C109.754 25.85 110.184 25.39 110.484 24.81C110.804 24.21 110.964 23.52 110.964 22.74C110.964 21.98 110.804 21.31 110.484 20.73C110.184 20.13 109.754 19.67 109.194 19.35C108.634 19.01 107.994 18.84 107.274 18.84C106.574 18.84 105.944 19.01 105.384 19.35C104.824 19.67 104.384 20.13 104.064 20.73C103.764 21.31 103.614 21.98 103.614 22.74C103.614 23.52 103.764 24.21 104.064 24.81C104.384 25.39 104.814 25.85 105.354 26.19C105.914 26.51 106.554 26.67 107.274 26.67ZM117.56 30V15.51H121.52V30H117.56ZM119.54 13.17C118.9 13.17 118.37 12.96 117.95 12.54C117.53 12.1 117.32 11.56 117.32 10.92C117.32 10.3 117.53 9.77 117.95 9.33C118.37 8.89 118.9 8.67 119.54 8.67C120.2 8.67 120.73 8.89 121.13 9.33C121.55 9.77 121.76 10.3 121.76 10.92C121.76 11.56 121.55 12.1 121.13 12.54C120.73 12.96 120.2 13.17 119.54 13.17ZM125.002 30V15.51H128.932V30H125.002ZM128.932 21.99L127.402 20.97C127.582 19.19 128.102 17.79 128.962 16.77C129.822 15.73 131.062 15.21 132.682 15.21C133.382 15.21 134.012 15.33 134.572 15.57C135.132 15.79 135.642 16.16 136.102 16.68L133.642 19.5C133.422 19.26 133.152 19.08 132.832 18.96C132.532 18.84 132.182 18.78 131.782 18.78C130.942 18.78 130.252 19.05 129.712 19.59C129.192 20.11 128.932 20.91 128.932 21.99ZM144.002 30.3C142.482 30.3 141.132 29.98 139.952 29.34C138.772 28.68 137.832 27.78 137.132 26.64C136.452 25.5 136.112 24.2 136.112 22.74C136.112 21.3 136.442 20.02 137.102 18.9C137.782 17.76 138.702 16.86 139.862 16.2C141.022 15.52 142.312 15.18 143.732 15.18C145.132 15.18 146.362 15.5 147.422 16.14C148.502 16.76 149.342 17.62 149.942 18.72C150.562 19.8 150.872 21.03 150.872 22.41C150.872 22.67 150.852 22.94 150.812 23.22C150.792 23.48 150.742 23.78 150.662 24.12L138.482 24.15V21.21L148.832 21.18L147.242 22.41C147.202 21.55 147.042 20.83 146.762 20.25C146.502 19.67 146.112 19.23 145.592 18.93C145.092 18.61 144.472 18.45 143.732 18.45C142.952 18.45 142.272 18.63 141.692 18.99C141.112 19.33 140.662 19.82 140.342 20.46C140.042 21.08 139.892 21.82 139.892 22.68C139.892 23.56 140.052 24.33 140.372 24.99C140.712 25.63 141.192 26.13 141.812 26.49C142.432 26.83 143.152 27 143.972 27C144.712 27 145.382 26.88 145.982 26.64C146.582 26.38 147.102 26 147.542 25.5L149.852 27.81C149.152 28.63 148.292 29.25 147.272 29.67C146.272 30.09 145.182 30.3 144.002 30.3Z" fill="black"/>
<path fill-rule="evenodd" clip-rule="evenodd" d="M0 17.7778C0 11.2829 -2.05305e-07 8.03542 2.0177 6.0177C4.03542 4 7.28286 4 13.7778 4H17.2222C23.7171 4 26.9647 4 28.9822 6.0177C31 8.03542 31 11.2829 31 17.7778V21.2222C31 27.7171 31 30.9647 28.9822 32.9822C26.9647 35 23.7171 35 17.2222 35H13.7778C7.28286 35 4.03542 35 2.0177 32.9822C-2.05305e-07 30.9647 0 27.7171 0 21.2222V17.7778ZM25.8333 11.75C25.8333 13.1767 24.6767 14.3333 23.25 14.3333C21.8233 14.3333 20.6667 13.1767 20.6667 11.75C20.6667 10.3233 21.8233 9.16667 23.25 9.16667C24.6767 9.16667 25.8333 10.3233 25.8333 11.75ZM18.9444 21.2222C18.9444 23.1246 17.4024 24.6667 15.5 24.6667C13.5976 24.6667 12.0556 23.1246 12.0556 21.2222C12.0556 19.3199 13.5976 17.7778 15.5 17.7778C17.4024 17.7778 18.9444 19.3199 18.9444 21.2222ZM22.3889 21.2222C22.3889 25.0268 19.3046 28.1111 15.5 28.1111C11.6954 28.1111 8.61111 25.0268 8.61111 21.2222C8.61111 17.4177 11.6954 14.3333 15.5 14.3333C19.3046 14.3333 22.3889 17.4177 22.3889 21.2222Z" fill="#007AFF"/>
</svg>
